<mxfile host="app.diagrams.net" modified="2023-11-29T18:42:12.621Z" agent="Mozilla/5.0 (Windows NT 10.0; Win64; x64) AppleWebKit/537.36 (KHTML, like Gecko) Chrome/119.0.0.0 Safari/537.36" etag="Afq76lCFE5CELhqVY3lW" version="22.1.4" type="github">
  <diagram name="Page-1" id="dbJrBeKMu9XxgdYBFWq-">
    <mxGraphModel dx="2603" dy="772" grid="1" gridSize="10" guides="1" tooltips="1" connect="1" arrows="1" fold="1" page="1" pageScale="1" pageWidth="1169" pageHeight="827" math="0" shadow="0">
      <root>
        <mxCell id="0" />
        <mxCell id="1" parent="0" />
        <mxCell id="DuCQzQeg1L_82CdrdjX1-16" value="Ireland&#39;s Data Protection Commission" style="rounded=0;whiteSpace=wrap;html=1;fillColor=#dae8fc;strokeColor=#6c8ebf;" parent="1" vertex="1">
          <mxGeometry x="-600" y="510" width="130" height="60" as="geometry" />
        </mxCell>
        <mxCell id="cXPdPHwPQMn-NlkyjZe0-14" style="edgeStyle=orthogonalEdgeStyle;rounded=0;orthogonalLoop=1;jettySize=auto;html=1;exitX=1;exitY=0.5;exitDx=0;exitDy=0;entryX=0.5;entryY=1;entryDx=0;entryDy=0;" edge="1" parent="1" source="DuCQzQeg1L_82CdrdjX1-17" target="ra4xmg58kN4Kjqp0mdpW-1">
          <mxGeometry relative="1" as="geometry" />
        </mxCell>
        <mxCell id="cXPdPHwPQMn-NlkyjZe0-15" value="Personal Data &lt;br&gt;Submission" style="edgeLabel;html=1;align=center;verticalAlign=middle;resizable=0;points=[];" vertex="1" connectable="0" parent="cXPdPHwPQMn-NlkyjZe0-14">
          <mxGeometry x="-0.5359" y="1" relative="1" as="geometry">
            <mxPoint as="offset" />
          </mxGeometry>
        </mxCell>
        <mxCell id="cXPdPHwPQMn-NlkyjZe0-24" style="edgeStyle=orthogonalEdgeStyle;rounded=0;orthogonalLoop=1;jettySize=auto;html=1;exitX=0.5;exitY=0;exitDx=0;exitDy=0;entryX=0.5;entryY=1;entryDx=0;entryDy=0;" edge="1" parent="1" source="DuCQzQeg1L_82CdrdjX1-17" target="DuCQzQeg1L_82CdrdjX1-18">
          <mxGeometry relative="1" as="geometry" />
        </mxCell>
        <mxCell id="cXPdPHwPQMn-NlkyjZe0-25" value="Providing Personall&lt;br&gt;Data" style="edgeLabel;html=1;align=center;verticalAlign=middle;resizable=0;points=[];" vertex="1" connectable="0" parent="cXPdPHwPQMn-NlkyjZe0-24">
          <mxGeometry x="-0.0125" y="1" relative="1" as="geometry">
            <mxPoint as="offset" />
          </mxGeometry>
        </mxCell>
        <mxCell id="DuCQzQeg1L_82CdrdjX1-17" value="EU and EEA Users" style="rounded=0;whiteSpace=wrap;html=1;fillColor=#dae8fc;strokeColor=#6c8ebf;" parent="1" vertex="1">
          <mxGeometry x="-1060" y="510" width="130" height="60" as="geometry" />
        </mxCell>
        <mxCell id="cXPdPHwPQMn-NlkyjZe0-16" style="edgeStyle=orthogonalEdgeStyle;rounded=0;orthogonalLoop=1;jettySize=auto;html=1;exitX=1;exitY=0.5;exitDx=0;exitDy=0;entryX=0.5;entryY=0;entryDx=0;entryDy=0;" edge="1" parent="1" source="DuCQzQeg1L_82CdrdjX1-18" target="ra4xmg58kN4Kjqp0mdpW-1">
          <mxGeometry relative="1" as="geometry" />
        </mxCell>
        <mxCell id="cXPdPHwPQMn-NlkyjZe0-17" value="Data Transfer &lt;br&gt;Initiation" style="edgeLabel;html=1;align=center;verticalAlign=middle;resizable=0;points=[];" vertex="1" connectable="0" parent="cXPdPHwPQMn-NlkyjZe0-16">
          <mxGeometry x="-0.4813" y="1" relative="1" as="geometry">
            <mxPoint as="offset" />
          </mxGeometry>
        </mxCell>
        <mxCell id="DuCQzQeg1L_82CdrdjX1-18" value="Meta Platform Ireland" style="rounded=0;whiteSpace=wrap;html=1;fillColor=#dae8fc;strokeColor=#6c8ebf;" parent="1" vertex="1">
          <mxGeometry x="-1060" y="290" width="130" height="60" as="geometry" />
        </mxCell>
        <mxCell id="DuCQzQeg1L_82CdrdjX1-19" value="European Data Protection Board" style="rounded=0;whiteSpace=wrap;html=1;fillColor=#dae8fc;strokeColor=#6c8ebf;" parent="1" vertex="1">
          <mxGeometry x="-600" y="290" width="130" height="60" as="geometry" />
        </mxCell>
        <mxCell id="cXPdPHwPQMn-NlkyjZe0-8" style="edgeStyle=orthogonalEdgeStyle;rounded=0;orthogonalLoop=1;jettySize=auto;html=1;exitX=1;exitY=0;exitDx=0;exitDy=0;entryX=0;entryY=0.25;entryDx=0;entryDy=0;" edge="1" parent="1" source="ra4xmg58kN4Kjqp0mdpW-1" target="DuCQzQeg1L_82CdrdjX1-19">
          <mxGeometry relative="1" as="geometry" />
        </mxCell>
        <mxCell id="cXPdPHwPQMn-NlkyjZe0-9" value="Text" style="edgeLabel;html=1;align=center;verticalAlign=middle;resizable=0;points=[];" vertex="1" connectable="0" parent="cXPdPHwPQMn-NlkyjZe0-8">
          <mxGeometry x="0.0914" relative="1" as="geometry">
            <mxPoint as="offset" />
          </mxGeometry>
        </mxCell>
        <mxCell id="cXPdPHwPQMn-NlkyjZe0-10" value="Compliance&amp;nbsp;&lt;br&gt;Reports" style="edgeLabel;html=1;align=center;verticalAlign=middle;resizable=0;points=[];" vertex="1" connectable="0" parent="cXPdPHwPQMn-NlkyjZe0-8">
          <mxGeometry x="0.0873" relative="1" as="geometry">
            <mxPoint as="offset" />
          </mxGeometry>
        </mxCell>
        <mxCell id="cXPdPHwPQMn-NlkyjZe0-18" style="edgeStyle=orthogonalEdgeStyle;rounded=0;orthogonalLoop=1;jettySize=auto;html=1;exitX=1;exitY=0.5;exitDx=0;exitDy=0;entryX=0.5;entryY=0;entryDx=0;entryDy=0;" edge="1" parent="1" source="ra4xmg58kN4Kjqp0mdpW-1" target="DuCQzQeg1L_82CdrdjX1-16">
          <mxGeometry relative="1" as="geometry" />
        </mxCell>
        <mxCell id="cXPdPHwPQMn-NlkyjZe0-19" value="Regulatory &lt;br&gt;Communication" style="edgeLabel;html=1;align=center;verticalAlign=middle;resizable=0;points=[];" vertex="1" connectable="0" parent="cXPdPHwPQMn-NlkyjZe0-18">
          <mxGeometry x="-0.2507" y="1" relative="1" as="geometry">
            <mxPoint as="offset" />
          </mxGeometry>
        </mxCell>
        <mxCell id="ra4xmg58kN4Kjqp0mdpW-1" value="&lt;br&gt;Data Transfer and Compliance Process" style="shape=ellipse;html=1;dashed=0;whiteSpace=wrap;aspect=fixed;perimeter=ellipsePerimeter;fillColor=#fff2cc;strokeColor=#d6b656;" parent="1" vertex="1">
          <mxGeometry x="-830" y="390" width="110" height="110" as="geometry" />
        </mxCell>
        <mxCell id="cXPdPHwPQMn-NlkyjZe0-12" value="&lt;b&gt;&lt;i&gt;De Marco and Yourdon&lt;br&gt;Context Level Diagram&amp;nbsp;&lt;br&gt;Meta and GDPR Compliance&lt;br&gt;&lt;/i&gt;&lt;/b&gt;" style="text;html=1;align=center;verticalAlign=middle;resizable=0;points=[];autosize=1;strokeColor=none;fillColor=none;" vertex="1" parent="1">
          <mxGeometry x="-1140" y="180" width="180" height="60" as="geometry" />
        </mxCell>
        <mxCell id="cXPdPHwPQMn-NlkyjZe0-20" style="edgeStyle=orthogonalEdgeStyle;rounded=0;orthogonalLoop=1;jettySize=auto;html=1;exitX=0.5;exitY=1;exitDx=0;exitDy=0;entryX=1.003;entryY=0.373;entryDx=0;entryDy=0;entryPerimeter=0;" edge="1" parent="1" source="DuCQzQeg1L_82CdrdjX1-19" target="ra4xmg58kN4Kjqp0mdpW-1">
          <mxGeometry relative="1" as="geometry" />
        </mxCell>
        <mxCell id="cXPdPHwPQMn-NlkyjZe0-21" value="Regulatory Feedback" style="edgeLabel;html=1;align=center;verticalAlign=middle;resizable=0;points=[];" vertex="1" connectable="0" parent="cXPdPHwPQMn-NlkyjZe0-20">
          <mxGeometry x="-0.611" y="1" relative="1" as="geometry">
            <mxPoint as="offset" />
          </mxGeometry>
        </mxCell>
        <mxCell id="cXPdPHwPQMn-NlkyjZe0-22" style="edgeStyle=orthogonalEdgeStyle;rounded=0;orthogonalLoop=1;jettySize=auto;html=1;exitX=0;exitY=0.5;exitDx=0;exitDy=0;entryX=0.627;entryY=1.027;entryDx=0;entryDy=0;entryPerimeter=0;" edge="1" parent="1" source="DuCQzQeg1L_82CdrdjX1-16" target="ra4xmg58kN4Kjqp0mdpW-1">
          <mxGeometry relative="1" as="geometry" />
        </mxCell>
        <mxCell id="cXPdPHwPQMn-NlkyjZe0-23" value="Enforcement &lt;br&gt;Directives" style="edgeLabel;html=1;align=center;verticalAlign=middle;resizable=0;points=[];" vertex="1" connectable="0" parent="cXPdPHwPQMn-NlkyjZe0-22">
          <mxGeometry x="-0.1957" y="-1" relative="1" as="geometry">
            <mxPoint as="offset" />
          </mxGeometry>
        </mxCell>
      </root>
    </mxGraphModel>
  </diagram>
</mxfile>
